<svg width="640" height="420" viewBox="0 0 640 420" fill="none" xmlns="http://www.w3.org/2000/svg">
  <defs>
    <linearGradient id="bg" x1="0" y1="0" x2="1" y2="1">
      <stop offset="0" stop-color="#111b39"/>
      <stop offset="1" stop-color="#1b2347"/>
    </linearGradient>
  </defs>
  <rect width="640" height="420" rx="26" fill="url(#bg)"/>
  <rect x="28" y="26" width="584" height="368" rx="20" fill="#0d1431" stroke="#2c3564" stroke-width="1.5"/>

  <rect x="52" y="52" width="140" height="16" rx="8" fill="#2b3a74"/>
  <text x="64" y="64" font-size="10" fill="#dbe4ff" font-family="DM Sans, Arial, sans-serif" letter-spacing="1">DRAFT</text>
  <rect x="52" y="84" width="240" height="10" rx="5" fill="#1f2a57"/>

  <rect x="52" y="120" width="536" height="92" rx="14" fill="#16204a" stroke="#34407b"/>
  <rect x="72" y="142" width="460" height="12" rx="6" fill="#2a3770"/>
  <text x="80" y="151" font-size="9" fill="#c7d2fe" font-family="DM Sans, Arial, sans-serif">Subject: Appointment update</text>
  <rect x="72" y="166" width="380" height="12" rx="6" fill="#2a3770"/>
  <text x="80" y="175" font-size="9" fill="#c7d2fe" font-family="DM Sans, Arial, sans-serif">Tone: Friendly · Action required</text>

  <rect x="52" y="230" width="536" height="108" rx="14" fill="#111a3c" stroke="#2c3564"/>
  <rect x="72" y="252" width="360" height="12" rx="6" fill="#2a3770"/>
  <text x="80" y="261" font-size="9" fill="#c7d2fe" font-family="DM Sans, Arial, sans-serif">Suggested reply drafted in 6 seconds</text>
  <rect x="72" y="276" width="420" height="12" rx="6" fill="#2a3770"/>
  <text x="80" y="285" font-size="9" fill="#c7d2fe" font-family="DM Sans, Arial, sans-serif">Includes order details and next steps</text>
  <rect x="72" y="300" width="320" height="12" rx="6" fill="#2a3770"/>
  <text x="80" y="309" font-size="9" fill="#c7d2fe" font-family="DM Sans, Arial, sans-serif">Attachments ready</text>

  <rect x="52" y="350" width="160" height="36" rx="18" fill="#3b82f6"/>
  <text x="98" y="373" font-size="11" fill="#0b1226" font-family="DM Sans, Arial, sans-serif" font-weight="700">Insert</text>
  <rect x="224" y="350" width="130" height="36" rx="18" fill="#10b981"/>
  <text x="262" y="373" font-size="11" fill="#052e1b" font-family="DM Sans, Arial, sans-serif" font-weight="700">Send</text>
  <rect x="366" y="350" width="120" height="36" rx="18" fill="#1f2a57"/>
  <text x="398" y="373" font-size="11" fill="#dbe4ff" font-family="DM Sans, Arial, sans-serif">Edit</text>
</svg>
