<svg width="640" height="420" viewBox="0 0 640 420" fill="none" xmlns="http://www.w3.org/2000/svg">
  <defs>
    <linearGradient id="bg" x1="0" y1="0" x2="1" y2="1">
      <stop offset="0" stop-color="#121a37"/>
      <stop offset="1" stop-color="#1a1f3f"/>
    </linearGradient>
    <linearGradient id="card" x1="0" y1="0" x2="1" y2="0">
      <stop offset="0" stop-color="#1c264f"/>
      <stop offset="1" stop-color="#222b57"/>
    </linearGradient>
  </defs>
  <rect width="640" height="420" rx="26" fill="url(#bg)"/>
  <rect x="28" y="26" width="584" height="368" rx="20" fill="#0f1631" stroke="#2c3564" stroke-width="1.5"/>
  <rect x="52" y="52" width="140" height="18" rx="9" fill="#2b3a74"/>
  <text x="66" y="65" font-size="10" fill="#dbe4ff" font-family="IBM Plex Sans, Arial, sans-serif" letter-spacing="1">CONNECT</text>
  <rect x="52" y="84" width="220" height="10" rx="5" fill="#1f2a57"/>
  <rect x="52" y="108" width="180" height="10" rx="5" fill="#1f2a57"/>

  <rect x="52" y="148" width="536" height="200" rx="16" fill="url(#card)" stroke="#34407b"/>
  <rect x="76" y="176" width="220" height="16" rx="8" fill="#3b4a8c"/>
  <text x="86" y="188" font-size="11" fill="#eef2ff" font-family="IBM Plex Sans, Arial, sans-serif">Gmail connected</text>
  <rect x="76" y="200" width="160" height="10" rx="5" fill="#2a3770"/>
  <text x="86" y="210" font-size="9" fill="#c7d2fe" font-family="IBM Plex Sans, Arial, sans-serif">Syncing 1,248 threads</text>
  <rect x="76" y="224" width="420" height="12" rx="6" fill="#2a3770"/>
  <text x="86" y="234" font-size="9" fill="#c7d2fe" font-family="IBM Plex Sans, Arial, sans-serif">New mail alerts enabled</text>
  <rect x="76" y="248" width="390" height="12" rx="6" fill="#2a3770"/>
  <text x="86" y="258" font-size="9" fill="#c7d2fe" font-family="IBM Plex Sans, Arial, sans-serif">Last sync 2 min ago</text>

  <rect x="76" y="280" width="160" height="36" rx="18" fill="#3b82f6"/>
  <text x="116" y="303" font-size="11" fill="#0b1226" font-family="IBM Plex Sans, Arial, sans-serif" font-weight="700">Connected</text>
  <rect x="248" y="280" width="140" height="36" rx="18" fill="#1f2a57"/>
  <text x="288" y="303" font-size="11" fill="#dbe4ff" font-family="IBM Plex Sans, Arial, sans-serif">Manage</text>

  <circle cx="520" cy="214" r="34" fill="#12214c" stroke="#3b82f6" stroke-width="2"/>
  <path d="M510 214h20M520 204v20" stroke="#3b82f6" stroke-width="2" stroke-linecap="round"/>
</svg>
