<svg width="640" height="420" viewBox="0 0 640 420" fill="none" xmlns="http://www.w3.org/2000/svg">
  <defs>
    <linearGradient id="bg" x1="0" y1="0" x2="1" y2="1">
      <stop offset="0" stop-color="#101c2f"/>
      <stop offset="1" stop-color="#1a2b3d"/>
    </linearGradient>
  </defs>
  <rect width="640" height="420" rx="26" fill="url(#bg)"/>
  <rect x="28" y="26" width="584" height="368" rx="20" fill="#0c1828" stroke="#254158" stroke-width="1.5"/>

  <rect x="52" y="52" width="170" height="18" rx="9" fill="#24445a"/>
  <text x="66" y="65" font-size="10" fill="#dff7ff" font-family="IBM Plex Sans, Arial, sans-serif" letter-spacing="1">INSIGHTS</text>
  <rect x="52" y="84" width="240" height="10" rx="5" fill="#1a3346"/>

  <rect x="52" y="124" width="260" height="190" rx="16" fill="#13283a" stroke="#2a4c64"/>
  <rect x="76" y="150" width="200" height="12" rx="6" fill="#1a3346"/>
  <text x="86" y="159" font-size="9" fill="#bfe9f5" font-family="IBM Plex Sans, Arial, sans-serif">Reach: 48.2k</text>
  <rect x="76" y="176" width="180" height="12" rx="6" fill="#1a3346"/>
  <text x="86" y="185" font-size="9" fill="#bfe9f5" font-family="IBM Plex Sans, Arial, sans-serif">Engagement: 6.1%</text>
  <rect x="76" y="202" width="200" height="12" rx="6" fill="#1a3346"/>
  <text x="86" y="211" font-size="9" fill="#bfe9f5" font-family="IBM Plex Sans, Arial, sans-serif">Clicks: 1.2k</text>
  <rect x="76" y="228" width="160" height="12" rx="6" fill="#1a3346"/>
  <text x="86" y="237" font-size="9" fill="#bfe9f5" font-family="IBM Plex Sans, Arial, sans-serif">Top post: Wed</text>

  <rect x="328" y="124" width="260" height="190" rx="16" fill="#162c3d" stroke="#2a4c64"/>
  <rect x="352" y="150" width="200" height="10" rx="5" fill="#1a3346"/>
  <text x="360" y="159" font-size="9" fill="#bfe9f5" font-family="IBM Plex Sans, Arial, sans-serif">Saves: 320</text>
  <rect x="352" y="176" width="180" height="10" rx="5" fill="#1a3346"/>
  <text x="360" y="185" font-size="9" fill="#bfe9f5" font-family="IBM Plex Sans, Arial, sans-serif">Follows: 84</text>
  <rect x="352" y="202" width="160" height="10" rx="5" fill="#1a3346"/>
  <text x="360" y="211" font-size="9" fill="#bfe9f5" font-family="IBM Plex Sans, Arial, sans-serif">Replies: 47</text>
  <rect x="352" y="228" width="140" height="10" rx="5" fill="#1a3346"/>
  <text x="360" y="237" font-size="9" fill="#bfe9f5" font-family="IBM Plex Sans, Arial, sans-serif">DMs: 12</text>

  <rect x="52" y="330" width="536" height="50" rx="14" fill="#13283a" stroke="#2a4c64"/>
  <text x="76" y="359" font-size="10" fill="#bfe9f5" font-family="IBM Plex Sans, Arial, sans-serif">Weekly report sent to your team</text>
</svg>
