<svg width="640" height="420" viewBox="0 0 640 420" fill="none" xmlns="http://www.w3.org/2000/svg">
  <defs>
    <linearGradient id="bg" x1="0" y1="0" x2="1" y2="1">
      <stop offset="0" stop-color="#0f1f2b"/>
      <stop offset="1" stop-color="#162634"/>
    </linearGradient>
  </defs>
  <rect width="640" height="420" rx="26" fill="url(#bg)"/>
  <rect x="28" y="26" width="584" height="368" rx="20" fill="#0c1824" stroke="#234055" stroke-width="1.5"/>

  <rect x="52" y="52" width="150" height="18" rx="9" fill="#24445a"/>
  <text x="66" y="65" font-size="10" fill="#dff7ff" font-family="IBM Plex Sans, Arial, sans-serif" letter-spacing="1">CONNECT</text>
  <rect x="52" y="84" width="260" height="10" rx="5" fill="#1a3346"/>

  <rect x="52" y="124" width="536" height="210" rx="16" fill="#13283a" stroke="#2a4c64"/>
  <rect x="76" y="148" width="120" height="32" rx="16" fill="#1d4ed8"/>
  <text x="98" y="168" font-size="11" fill="#e2e8ff" font-family="IBM Plex Sans, Arial, sans-serif">Facebook</text>
  <rect x="208" y="148" width="120" height="32" rx="16" fill="#db2777"/>
  <text x="232" y="168" font-size="11" fill="#ffe4f0" font-family="IBM Plex Sans, Arial, sans-serif">Instagram</text>
  <rect x="340" y="148" width="120" height="32" rx="16" fill="#0f766e"/>
  <text x="366" y="168" font-size="11" fill="#ccfbf1" font-family="IBM Plex Sans, Arial, sans-serif">LinkedIn</text>

  <rect x="76" y="196" width="240" height="12" rx="6" fill="#24445a"/>
  <text x="86" y="205" font-size="9" fill="#bfe9f5" font-family="IBM Plex Sans, Arial, sans-serif">Connected: 3 channels</text>
  <rect x="76" y="220" width="320" height="12" rx="6" fill="#24445a"/>
  <text x="86" y="229" font-size="9" fill="#bfe9f5" font-family="IBM Plex Sans, Arial, sans-serif">Permissions verified</text>
  <rect x="76" y="244" width="280" height="12" rx="6" fill="#24445a"/>
  <text x="86" y="253" font-size="9" fill="#bfe9f5" font-family="IBM Plex Sans, Arial, sans-serif">Auto-sync enabled</text>

  <rect x="76" y="276" width="160" height="36" rx="18" fill="#22c55e"/>
  <text x="112" y="299" font-size="11" fill="#052e16" font-family="IBM Plex Sans, Arial, sans-serif" font-weight="700">Connected</text>
  <rect x="248" y="276" width="140" height="36" rx="18" fill="#1a3346"/>
  <text x="288" y="299" font-size="11" fill="#dff7ff" font-family="IBM Plex Sans, Arial, sans-serif">Manage</text>
</svg>
